<?xml version="1.0" encoding="UTF-8" standalone="no"?>
<!-- Created with Inkscape (http://www.inkscape.org/) -->

<svg
   xmlns:dc="http://purl.org/dc/elements/1.1/"
   xmlns:cc="http://creativecommons.org/ns#"
   xmlns:rdf="http://www.w3.org/1999/02/22-rdf-syntax-ns#"
   xmlns:svg="http://www.w3.org/2000/svg"
   xmlns="http://www.w3.org/2000/svg"
   xmlns:sodipodi="http://sodipodi.sourceforge.net/DTD/sodipodi-0.dtd"
   xmlns:inkscape="http://www.inkscape.org/namespaces/inkscape"
   width="256"
   height="256"
   viewBox="0 0 67.733334 67.733333"
   version="1.1"
   id="svg8"
   inkscape:version="0.92.3 (2405546, 2018-03-11)"
   sodipodi:docname="notifications.svg">
  <defs
     id="defs2" />
  <sodipodi:namedview
     id="base"
     pagecolor="#ffffff"
     bordercolor="#666666"
     borderopacity="1.0"
     inkscape:pageopacity="0.0"
     inkscape:pageshadow="2"
     inkscape:zoom="1.979899"
     inkscape:cx="34.164209"
     inkscape:cy="146.31332"
     inkscape:document-units="mm"
     inkscape:current-layer="g817"
     showgrid="false"
     showguides="false"
     inkscape:window-width="1920"
     inkscape:window-height="1017"
     inkscape:window-x="-8"
     inkscape:window-y="-8"
     inkscape:window-maximized="1"
     showborder="true"
     inkscape:showpageshadow="true"
     borderlayer="false"
     units="px"
     width="256px">
    <inkscape:grid
       type="xygrid"
       id="grid820" />
  </sodipodi:namedview>
  <metadata
     id="metadata5">
    <rdf:RDF>
      <cc:Work
         rdf:about="">
        <dc:format>image/svg+xml</dc:format>
        <dc:type
           rdf:resource="http://purl.org/dc/dcmitype/StillImage" />
        <dc:title />
      </cc:Work>
    </rdf:RDF>
  </metadata>
  <g
     inkscape:label="Layer 1"
     inkscape:groupmode="layer"
     id="layer1"
     transform="translate(0,-229.26668)">
    <g
       id="g817"
       transform="matrix(1.3791111,0,0,1.3791111,-10.855943,-96.950658)">
      <path
         style="fill:#808080;fill-opacity:1;stroke-width:5.21238852"
         d="m 128.94141,5.8164062 c -6.97161,0 -12.93348,6.5706428 -15.6543,16.0546878 -0.0261,0.0052 -0.0526,0.01041 -0.0781,0.01563 -33.683873,7.184443 -58.798824,36.98984 -58.798824,72.878906 v 66.8711 c 0,85.5272 -72.827307,74.53125 74.531254,74.53125 142.25478,0 74.53516,10.99595 74.53515,-74.53125 V 94.767578 C 204.01509,59.737203 177.69841,28.501634 144.60938,21.90625 141.89294,12.404431 135.92106,5.8203125 128.94141,5.8203125 Z"
         transform="matrix(0.19185063,0,0,0.19185063,7.8716958,236.54174)"
         id="rect815"
         inkscape:connector-curvature="0"
         sodipodi:nodetypes="cccsssscccc" />
      <path
         d="m 35.635804,282.4682 a 3.2072344,2.0713389 0 0 1 -1.603617,1.79383 3.2072344,2.0713389 0 0 1 -3.207234,0 3.2072344,2.0713389 0 0 1 -1.603618,-1.79383 l 3.207235,0 z"
         sodipodi:end="3.1415927"
         sodipodi:start="0"
         sodipodi:ry="2.0713389"
         sodipodi:rx="3.2072344"
         sodipodi:cy="282.4682"
         sodipodi:cx="32.42857"
         sodipodi:type="arc"
         id="path844"
         style="fill:#808080;fill-opacity:1;stroke-width:0.26458332" />
      <path
         style="fill:#ffffff;fill-opacity:1;stroke-width:0.78957266"
         d="m 32.562332,241.84597 c -0.990666,0 -1.837846,1.06104 -2.224475,2.5925 -0.0038,8.4e-4 -0.0074,0.002 -0.01109,0.003 -4.786474,1.16013 -8.355305,5.97308 -8.355305,11.76843 v 10.79831 c 0,13.81087 -10.348752,12.03524 10.590882,12.03524 20.214384,0 10.591436,1.77563 10.591435,-12.03524 v -10.79805 c 0.07652,-5.65668 -3.663077,-10.70059 -8.365024,-11.7656 -0.386006,-1.53434 -1.234608,-2.59754 -2.226417,-2.59754 z"
         id="rect815-8"
         inkscape:connector-curvature="0"
         sodipodi:nodetypes="cccsssscccc" />
    </g>
  </g>
</svg>
