<?xml version="1.0" encoding="UTF-8" standalone="no"?>
<!-- Created with Inkscape (http://www.inkscape.org/) -->

<svg
   xmlns:dc="http://purl.org/dc/elements/1.1/"
   xmlns:cc="http://creativecommons.org/ns#"
   xmlns:rdf="http://www.w3.org/1999/02/22-rdf-syntax-ns#"
   xmlns:svg="http://www.w3.org/2000/svg"
   xmlns="http://www.w3.org/2000/svg"
   xmlns:sodipodi="http://sodipodi.sourceforge.net/DTD/sodipodi-0.dtd"
   xmlns:inkscape="http://www.inkscape.org/namespaces/inkscape"
   width="256"
   height="256"
   viewBox="0 0 67.733334 67.733333"
   version="1.1"
   id="svg8"
   inkscape:version="0.92.3 (2405546, 2018-03-11)"
   sodipodi:docname="notifications.svg">
  <defs
     id="defs2" />
  <sodipodi:namedview
     id="base"
     pagecolor="#ffffff"
     bordercolor="#666666"
     borderopacity="1.0"
     inkscape:pageopacity="0.0"
     inkscape:pageshadow="2"
     inkscape:zoom="1.4"
     inkscape:cx="-31.116394"
     inkscape:cy="129.07083"
     inkscape:document-units="mm"
     inkscape:current-layer="g825"
     showgrid="false"
     showguides="false"
     inkscape:window-width="1920"
     inkscape:window-height="1017"
     inkscape:window-x="-8"
     inkscape:window-y="-8"
     inkscape:window-maximized="1"
     showborder="true"
     inkscape:showpageshadow="true"
     borderlayer="false"
     units="px"
     width="256px">
    <inkscape:grid
       type="xygrid"
       id="grid820" />
  </sodipodi:namedview>
  <metadata
     id="metadata5">
    <rdf:RDF>
      <cc:Work
         rdf:about="">
        <dc:format>image/svg+xml</dc:format>
        <dc:type
           rdf:resource="http://purl.org/dc/dcmitype/StillImage" />
        <dc:title />
      </cc:Work>
    </rdf:RDF>
  </metadata>
  <g
     inkscape:label="Layer 1"
     inkscape:groupmode="layer"
     id="layer1"
     transform="translate(0,-229.26668)">
    <g
       id="g817"
       transform="matrix(1.3791111,0,0,1.3791111,-10.855943,-96.950658)">
      <g
         id="g825"
         transform="matrix(1.0399242,0,0,1.0399242,-1.2947017,-10.823133)">
        <g
           id="g827">
          <path
             id="rect815"
             transform="matrix(0.18448521,0,0,0.18448521,8.8144862,237.86818)"
             d="M 128.97852 3.0175781 C 121.72857 3.0175781 115.52867 5.6919996 112.69922 15.554688 C 112.67212 15.560108 112.64565 15.564892 112.61914 15.570312 C 77.590462 23.041589 51.472656 54.037466 51.472656 91.359375 L 51.472656 160.90039 C 51.472656 249.84221 -24.263217 238.40625 128.97852 238.40625 C 276.9127 238.40625 206.49025 249.84221 206.49023 160.90039 L 206.49023 91.361328 C 207.05023 54.932391 179.68157 22.450504 145.27148 15.591797 C 142.4466 5.7106251 136.23682 3.0214844 128.97852 3.0214844 L 128.97852 3.0175781 z M 128.55664 41.025391 C 155.591 40.83089 182.69167 58.902069 182.95703 95.822266 L 182.95703 151.84766 C 182.95703 218.18468 231.01314 218.58398 127.5625 218.58398 C 20.400265 218.58398 74.552734 218.18441 74.552734 151.84766 L 74.552734 95.820312 C 74.554133 59.679312 101.52228 41.219891 128.55664 41.025391 z "
             style="fill:#808080;fill-opacity:1;stroke-width:5.42048883" />
          <path
             d="m 35.635804,282.4682 a 3.2072344,2.0713389 0 0 1 -1.603617,1.79383 3.2072344,2.0713389 0 0 1 -3.207234,0 3.2072344,2.0713389 0 0 1 -1.603618,-1.79383 l 3.207235,0 z"
             sodipodi:end="3.1415927"
             sodipodi:start="0"
             sodipodi:ry="2.0713389"
             sodipodi:rx="3.2072344"
             sodipodi:cy="282.4682"
             sodipodi:cx="32.42857"
             sodipodi:type="arc"
             id="path844"
             style="fill:#808080;fill-opacity:1;stroke-width:0.26458332" />
        </g>
      </g>
    </g>
  </g>
</svg>
