<svg xmlns="http://www.w3.org/2000/svg" width="256" height="256" viewBox="0 0 67.733 67.733">
  <path fill="gray" d="M34.126.798c-1.919 0-3.559.708-4.308 3.318a20.46 20.46 0 0 0-16.2 20.057v18.399c0 23.532-14.692 20.506 20.508 20.506 34.53 0 20.508 3.026 20.508-20.506v-18.4c.148-9.638-7.093-18.232-16.198-20.047C37.69 1.511 36.046.8 34.126.8zm-.112 10.057c7.153-.052 14.323 4.73 14.393 14.498v17.998c0 18.223 9.503 14.483-14.656 14.483-23.629 0-14.026 3.823-14.026-14.483V25.352c0-9.562 7.136-14.446 14.289-14.497zm-4.747 53.11c0 1.06.877 2.04 2.3 2.572 1.423.53 3.176.53 4.6 0 1.422-.531 2.3-1.512 2.3-2.573h-4.6z"/>
</svg>
