<?xml version="1.0" encoding="UTF-8" standalone="no"?>
<!-- Created with Inkscape (http://www.inkscape.org/) -->

<svg
   xmlns:dc="http://purl.org/dc/elements/1.1/"
   xmlns:cc="http://creativecommons.org/ns#"
   xmlns:rdf="http://www.w3.org/1999/02/22-rdf-syntax-ns#"
   xmlns:svg="http://www.w3.org/2000/svg"
   xmlns="http://www.w3.org/2000/svg"
   xmlns:sodipodi="http://sodipodi.sourceforge.net/DTD/sodipodi-0.dtd"
   xmlns:inkscape="http://www.inkscape.org/namespaces/inkscape"
   width="210mm"
   height="297mm"
   viewBox="0 0 210 297"
   version="1.1"
   id="svg8"
   inkscape:version="0.92.3 (2405546, 2018-03-11)"
   sodipodi:docname="settings.svg">
  <defs
     id="defs2" />
  <sodipodi:namedview
     id="base"
     pagecolor="#ffffff"
     bordercolor="#666666"
     borderopacity="1.0"
     inkscape:pageopacity="0.0"
     inkscape:pageshadow="2"
     inkscape:zoom="0.49497475"
     inkscape:cx="68.166546"
     inkscape:cy="672.19301"
     inkscape:document-units="mm"
     inkscape:current-layer="layer1"
     showgrid="false"
     inkscape:window-width="1920"
     inkscape:window-height="1017"
     inkscape:window-x="-8"
     inkscape:window-y="-8"
     inkscape:window-maximized="1" />
  <metadata
     id="metadata5">
    <rdf:RDF>
      <cc:Work
         rdf:about="">
        <dc:format>image/svg+xml</dc:format>
        <dc:type
           rdf:resource="http://purl.org/dc/dcmitype/StillImage" />
        <dc:title />
      </cc:Work>
    </rdf:RDF>
  </metadata>
  <g
     inkscape:groupmode="layer"
     id="layer2"
     inkscape:label="Background"
     style="display:none">
    <rect
       style="fill:#666666;fill-opacity:1;stroke-width:0.26458332"
       id="rect831"
       width="129.64583"
       height="124.92113"
       x="40.177086"
       y="86.039436"
       ry="55.505615" />
  </g>
  <g
     inkscape:label="Layer 1"
     inkscape:groupmode="layer"
     id="layer1">
    <path
       style="fill:#e6e6e6;fill-opacity:1;stroke-width:0.26458332"
       id="path815"
       sodipodi:type="arc"
       sodipodi:cx="88.312263"
       sodipodi:cy="147.97351"
       sodipodi:rx="16.704346"
       sodipodi:ry="16.704346"
       sodipodi:start="0"
       sodipodi:end="0.063078119"
       sodipodi:open="true"
       d="m 105.01661,147.97351 a 16.704346,16.704346 0 0 1 -0.0332,1.05298" />
    <path
       style="fill:#808080;fill-opacity:1;stroke-width:0.26458332"
       d="m 146.53831,161.55479 c 0.18454,-0.70943 0.37911,-1.51158 0.58639,-2.41948 3.31657,-14.52652 -2.11092,-3.29071 -5.42562,-17.81765 -3.31469,-14.52694 6.44905,-6.75773 -2.84039,-18.40786 -9.28945,-11.65013 -3.88872,-0.40107 -17.31302,-6.86694 -13.42431,-6.46586 -1.26225,-9.25566 -16.16256,-9.25662 -14.900316,-9.6e-4 -2.73816,2.79048 -16.163288,9.25462 -13.425135,6.46414 -8.023506,-4.78426 -17.314446,6.86468 -9.290939,11.64893 0.474297,3.8809 -2.842264,18.40741 -3.316568,14.52652 -8.742831,3.28997 -5.428138,17.81692 3.3147,14.52693 3.329845,2.04882 12.619294,13.69896 9.289439,11.65013 -2.878555,8.88683 10.545749,15.35269 13.424303,6.46587 3.677697,-1.32603 18.578013,-1.32508 14.90031,9.6e-4 5.15296,7.7913 18.5781,1.32716 13.42513,-6.46413 1.25645,-3.70226 10.54739,-15.3512 8.71026,-10.92088 9.26653,-0.63636 12.03479,-11.27761 z m -27.8715,-8.24918 a 13.145635,13.969915 15.063058 0 1 -16.32439,10.07393 13.145635,13.969915 15.063058 0 1 -9.063174,-16.90646 13.145635,13.969915 15.063058 0 1 16.324254,-10.07344 13.145635,13.969915 15.063058 0 1 9.06331,16.90597 z"
       id="path817"
       inkscape:connector-curvature="0" />
  </g>
</svg>
