<svg xmlns="http://www.w3.org/2000/svg" width="256" height="256" viewBox="0 0 67.733 67.733">
  <path d="M65.234 43.612c.14-.54.289-1.152.447-1.844 2.527-11.07-1.61-2.508-4.135-13.579-2.527-11.071 4.914-5.15-2.165-14.029-7.08-8.878-2.964-.305-13.195-5.233-10.23-4.928-.962-7.054-12.317-7.055-11.356 0-2.087 2.127-12.318 7.053-10.232 4.927-6.115-3.646-13.196 5.232-7.08 8.878.362 2.958-2.166 14.028-2.528 11.071-6.663 2.508-4.137 13.579 2.526 11.071 2.538 1.561 9.617 10.44 7.08 8.879-2.193 6.773 8.037 11.7 10.231 4.928 2.803-1.01 14.159-1.01 11.356.001 3.927 5.938 14.159 1.012 10.23-4.926.957-2.821 8.038-11.7 6.638-8.322 7.062-.484 9.172-8.594zm-21.242-6.287a10.018 10.647 15.063 0 1-12.44 7.678 10.018 10.647 15.063 0 1-6.908-12.885 10.018 10.647 15.063 0 1 12.441-7.677 10.018 10.647 15.063 0 1 6.907 12.884z"/>
</svg>
