<?xml version="1.0" encoding="UTF-8" standalone="no"?>
<!-- Created with Inkscape (http://www.inkscape.org/) -->

<svg
   xmlns:dc="http://purl.org/dc/elements/1.1/"
   xmlns:cc="http://creativecommons.org/ns#"
   xmlns:rdf="http://www.w3.org/1999/02/22-rdf-syntax-ns#"
   xmlns:svg="http://www.w3.org/2000/svg"
   xmlns="http://www.w3.org/2000/svg"
   xmlns:sodipodi="http://sodipodi.sourceforge.net/DTD/sodipodi-0.dtd"
   xmlns:inkscape="http://www.inkscape.org/namespaces/inkscape"
   width="256mm"
   height="256mm"
   viewBox="0 0 256 256"
   version="1.1"
   id="svg8"
   inkscape:version="0.92.3 (2405546, 2018-03-11)"
   sodipodi:docname="settings.svg">
  <defs
     id="defs2" />
  <sodipodi:namedview
     id="base"
     pagecolor="#ffffff"
     bordercolor="#666666"
     borderopacity="1.0"
     inkscape:pageopacity="0.0"
     inkscape:pageshadow="2"
     inkscape:zoom="0.35"
     inkscape:cx="226.76461"
     inkscape:cy="504.31607"
     inkscape:document-units="mm"
     inkscape:current-layer="layer1"
     showgrid="false"
     inkscape:window-width="1920"
     inkscape:window-height="1017"
     inkscape:window-x="-8"
     inkscape:window-y="-8"
     inkscape:window-maximized="1" />
  <metadata
     id="metadata5">
    <rdf:RDF>
      <cc:Work
         rdf:about="">
        <dc:format>image/svg+xml</dc:format>
        <dc:type
           rdf:resource="http://purl.org/dc/dcmitype/StillImage" />
        <dc:title></dc:title>
      </cc:Work>
    </rdf:RDF>
  </metadata>
  <g
     inkscape:label="Layer 1"
     inkscape:groupmode="layer"
     id="layer1"
     transform="translate(0,-41)">
    <path
       style="fill:#e6e6e6;fill-opacity:1;stroke-width:0.75040191"
       id="path815"
       sodipodi:type="arc"
       sodipodi:cx="80.670837"
       sodipodi:cy="167.50679"
       sodipodi:rx="47.376274"
       sodipodi:ry="47.376274"
       sodipodi:start="0"
       sodipodi:end="0.063078119"
       sodipodi:open="true"
       d="m 128.04711,167.50679 a 47.376274,47.376274 0 0 1 -0.0942,2.98643" />
    <path
       style="fill:#808080;fill-opacity:1;stroke-width:0.75040191"
       d="m 244.73098,205.26677 c 0.52339,-2.01206 1.07521,-4.28709 1.6631,-6.86203 9.40634,-41.19961 -5.98693,-9.333 -15.38794,-50.5338 -9.40102,-41.2008 18.29056,-19.16604 -8.05583,-52.207719 C 196.6039,62.621535 211.92127,94.525721 173.84774,76.187448 135.77418,57.849206 170.26778,49.936873 128.00806,49.934151 85.748329,49.931393 120.24218,57.848411 82.166341,76.181777 44.090448,94.515143 59.410335,62.612828 33.059718,95.651131 6.7090859,128.68942 34.404907,106.65802 24.9986,147.85758 c -9.406339,41.19959 -24.7961191,9.33089 -15.3951041,50.53171 9.4010401,41.20078 9.4439811,5.8108 35.7903831,38.85251 26.34638,33.0417 -8.164036,25.20452 29.909473,43.54277 38.073538,18.33827 10.430571,-3.76085 52.690288,-3.75816 42.25974,0.002 14.61466,22.09741 52.69056,3.76405 38.07588,-18.33333 3.5635,-10.50022 29.91414,-43.53853 24.70373,-30.97342 26.2814,-1.80483 34.13264,-31.98516 z m -79.04815,-23.39603 a 37.283185,39.620979 15.063058 0 1 -46.29867,28.57132 37.283185,39.620979 15.063058 0 1 -25.704645,-47.9495 37.283185,39.620979 15.063058 0 1 46.298255,-28.56993 37.283185,39.620979 15.063058 0 1 25.70506,47.94811 z"
       id="path817"
       inkscape:connector-curvature="0" />
  </g>
</svg>
